<?xml version="1.0" encoding="iso-8859-1"?>
<!-- Generator: Adobe Illustrator 19.0.0, SVG Export Plug-In . SVG Version: 6.00 Build 0)  -->
<svg version="1.1" id="Capa_1" xmlns="http://www.w3.org/2000/svg" xmlns:xlink="http://www.w3.org/1999/xlink" x="0px" y="0px"
	 viewBox="0 0 464 464" style="enable-background:new 0 0 464 464;" xml:space="preserve">
<path style="fill:#6F3114;" d="M128,102.32h0.08c-10.773,26.742-10.773,56.618,0,83.36H128V424H56V32C56,14.327,70.327,0,88,0h40
	V102.32z"/>
<circle style="fill:#D6CEC8;" cx="232" cy="144" r="80"/>
<path style="fill:#07B671;" d="M232,32c61.918-0.062,112.162,50.083,112.223,112.001s-50.083,112.162-112.001,112.223
	c-61.918,0.062-112.162-50.083-112.223-112.001c-0.014-14.356,2.729-28.582,8.081-41.903C145.106,59.855,186.249,32.015,232,32z
	 M312,144c0-44.183-35.817-80-80-80s-80,35.817-80,80s35.817,80,80,80C276.154,223.93,311.93,188.154,312,144z"/>
<g>
	<path style="fill:#FF2904;" d="M248,392v56c0,8.837-7.163,16-16,16c-8.837,0-16-7.163-16-16v-56H248z"/>
	<path style="fill:#FF2904;" d="M216,344h32v48h-32V344z"/>
	<path style="fill:#FF2904;" d="M216,304h32v40h-32V304z"/>
	<path style="fill:#FF2904;" d="M248,256v48h-32v-48h16H248z"/>
</g>
<path style="fill:#D6CEC8;" d="M408,392v72H232c8.826-0.026,15.974-7.174,16-16v-56H408z"/>
<g>
	<path style="fill:#A55F39;" d="M232,256h-16v136h-88V185.68h0.08C145.079,228.167,186.239,256.019,232,256z"/>
	<path style="fill:#A55F39;" d="M408,0v392H248V256h-16c61.856,0.02,112.016-50.108,112.036-111.964S293.927,32.02,232.071,32
		c-45.777-0.015-86.956,27.831-103.991,70.32H128V0L408,0z"/>
</g>
<path style="fill:#D6CEC8;" d="M216,448c0.026,8.826,7.174,15.974,16,16H88c-17.673,0-32-14.327-32-32v-8c0-17.673,14.327-32,32-32
	h128V448z"/>
<g>
	<path style="fill:#6F3114;" d="M368,312h16v16h-16V312z"/>
	<path style="fill:#6F3114;" d="M376,368h-40v-16h32v-8h16v16C384,364.418,380.418,368,376,368z"/>
</g>
<g>
	<path style="fill:#B4A49C;" d="M192,104h88v16h-88V104z"/>
	<path style="fill:#B4A49C;" d="M176,136h72v16h-72V136z"/>
	<path style="fill:#B4A49C;" d="M192,168h80v16h-80V168z"/>
	<path style="fill:#B4A49C;" d="M264,136h24v16h-24V136z"/>
</g>
<path style="fill:#A81B04;" d="M216,304h32v40h-32V304z"/>
<g>
</g>
<g>
</g>
<g>
</g>
<g>
</g>
<g>
</g>
<g>
</g>
<g>
</g>
<g>
</g>
<g>
</g>
<g>
</g>
<g>
</g>
<g>
</g>
<g>
</g>
<g>
</g>
<g>
</g>
</svg>
